<?xml version="1.0" encoding="UTF-8" standalone="no" ?>
<!DOCTYPE svg PUBLIC "-//W3C//DTD SVG 1.1//EN" "http://www.w3.org/Graphics/SVG/1.1/DTD/svg11.dtd">
<svg xmlns="http://www.w3.org/2000/svg" xmlns:xlink="http://www.w3.org/1999/xlink" version="1.1" width="550" height="833.70957" viewBox="633.2225928359535 88.21769714323295 694.08113 1052.1128735225711" xml:space="preserve">
<desc>Created with Fabric.js 5.3.0</desc>
<defs>
</defs>
<g transform="matrix(1 0 0 1 980.263157836 614.2741339045)" id="etzfdaobuANtXkBM1hNs5"  >
<linearGradient id="SVGID_1692" gradientUnits="userSpaceOnUse" gradientTransform="matrix(1 0 0 1 -347.040565 -526.056435)"  x1="247.86885245901635" y1="701.1384022131148" x2="613.4253922950818" y2="494.58102516393444">
<stop offset="0%" style="stop-color:#F0A46A;stop-opacity: 1"/>
<stop offset="26.46880871389789%" style="stop-color:#D19E5B;stop-opacity: 1"/>
<stop offset="62.9352235471991%" style="stop-color:#9C5BC2;stop-opacity: 1"/>
<stop offset="77.38257417759196%" style="stop-color:#576D61;stop-opacity: 1"/>
<stop offset="100%" style="stop-color:#5BC28B;stop-opacity: 1"/>
</linearGradient>
<path style="stroke: rgb(0,0,0); stroke-width: 0; stroke-dasharray: none; stroke-linecap: butt; stroke-dashoffset: 0; stroke-linejoin: miter; stroke-miterlimit: 4; fill: url(#SVGID_1692); fill-rule: nonzero; opacity: 1;"  transform=" translate(0, 0)" d="M -173.65187 40.63211 C -141.85113 40.63211 -116.02244 66.49604 -115.85564 98.42833999999999 C -116.02243999999999 130.36064 -141.85112999999998 156.22457 -173.65187 156.22457 C -205.45261 156.22457 -231.28129 130.36064 -231.4481 98.42833999999999 C -231.28128 66.49604 -205.45261000000002 40.63210999999999 -173.65187 40.63210999999999 z M -58.0594 -91.47356 C -26.259479999999996 -91.47356 -0.43129999999999313 -65.61096 -0.2631799999999984 -33.679790000000004 L -0.2631799999999984 -58.81589 L -0.2606799999999984 -58.81589 C 0.26941000000000154 -122.51075 51.85026 -174.0396 115.32928000000001 -174.0396 L 115.32932000000001 -174.0396 C 178.9308 -174.0396 230.58816000000002 -122.31176 230.92178 -58.447140000000005 L 115.3268 -58.447140000000005 C 114.79671 5.247719999999994 63.215860000000006 56.77656999999999 -0.2631599999999992 56.77656999999999 L -0.2631799999999992 56.77656999999999 L -0.2631799999999992 -33.67486000000001 C -0.4312899999999992 -1.743690000000008 -26.259469999999997 24.118909999999993 -58.0594 24.118909999999993 C -89.81774 24.118909999999993 -115.61994 -1.6761000000000088 -115.85482999999999 -33.54964000000001 L -115.85482999999999 32.266279999999995 L -115.85485 32.266279999999995 C -179.25008 32.266279999999995 -230.74045999999998 -19.456950000000006 -231.07756 -83.31764000000001 L -231.07759000000001 -83.31764000000001 L -231.07759000000001 -83.32281000000002 C -231.07760000000002 -83.32393000000002 -231.07760000000002 -83.32506000000002 -231.07761000000002 -83.32618000000002 L -231.07759000000001 -83.32618000000002 L -231.07758 -198.91010000000003 C -230.9113 -230.84241000000003 -205.16524 -256.70632 -173.46621000000002 -256.70633000000004 L -173.46620000000001 -256.70633000000004 C -141.76717000000002 -256.70632000000006 -116.02111000000002 -230.84241000000003 -115.85483000000002 -198.91010000000003 L -115.85483000000002 -33.805000000000035 C -115.61994000000003 -65.67854000000003 -89.81775000000002 -91.47355000000005 -58.05940000000002 -91.47355000000005 z M 164.61355 -50.44591 C 196.41429 -50.44591 222.24298 -24.581979999999998 222.40978 7.3503200000000035 C 222.24298000000002 39.28262000000001 196.41429000000002 65.14655 164.61355 65.14655 C 132.81281 65.14655 106.98413 39.28262000000001 106.81732 7.3503200000000035 C 106.98414 -24.581979999999998 132.81280999999998 -50.44591 164.61355 -50.44591 z M 57.53306 -306.14528 C 89.3338 -306.14528 115.16248999999999 -280.28135000000003 115.32929 -248.34905 C 115.16249 -216.41675 89.3338 -190.55282 57.53306 -190.55282 C 25.732319999999998 -190.55282 -0.09636000000000422 -216.41675 -0.26317000000000235 -248.34905 C -0.09635000000000235 -280.28135000000003 25.732319999999998 -306.14528 57.53306 -306.14528 z M -289.24434 295.28421 C -257.4436 295.28421 -231.61491 321.14813999999996 -231.44811 353.08043999999995 C -231.61491 385.01273999999995 -257.4436 410.87666999999993 -289.24434 410.87666999999993 C -321.04508000000004 410.87666999999993 -346.87376 385.01273999999995 -347.04057 353.08043999999995 C -346.87375000000003 321.14813999999996 -321.04508 295.28421 -289.24434 295.28421 z M -58.0594 410.46397 C -26.258659999999995 410.46397 -0.4299699999999973 436.3279 -0.26316999999999524 468.2602 C -0.42996999999999524 500.1925 -26.258659999999995 526.05643 -58.0594 526.05643 C -89.86014 526.05643 -115.68881999999999 500.1925 -115.85562999999999 468.2602 C -115.68880999999999 436.3279 -89.86013999999999 410.46397 -58.05939999999999 410.46397 z M -234.98383 -86.90613 C -241.93880000000001 -32.608900000000006 -285.23189 8.243089999999995 -337.21226 13.92716 C -341.7185 -0.956389999999999 -343.30422 -16.99419 -341.37437 -33.42038 C -334.4194 -87.71761000000001 -291.12631 -128.5696 -239.14596 -134.25368 C -234.63972 -119.37013 -233.054 -103.33233 -234.98383 -86.90614 z M -239.14597 163.26401 C -291.12632 157.57993000000002 -334.41940999999997 116.72794000000002 -341.37438 62.43071000000002 C -343.30422999999996 46.00452000000002 -341.71851 29.96673000000002 -337.21227 15.083170000000017 C -285.2319 20.767240000000015 -241.93881 61.61924000000002 -234.98384 115.91646000000003 C -233.05400999999998 132.34265000000002 -234.63973 148.38045000000002 -239.14596999999998 163.26400000000004 z M 333.46574 -291.60514 C 326.51077 -237.30791 283.21768 -196.45592 231.23730999999998 -190.77185 C 226.73107 -205.6554 225.14534999999998 -221.6932 227.07519999999997 -238.11939 C 234.03016999999997 -292.41662 277.32325999999995 -333.26861 329.30360999999994 -338.95269 C 333.8098499999999 -324.06914 335.3955699999999 -308.03134 333.4657399999999 -291.60515000000004 z M -11.45749 124.46685 C -5.8629299999999995 140.91824 -3.04369 157.42083 -2.7388200000000005 173.12068 C -43.759389999999996 173.93711 -86.99356 137.9055 -105.92516 83.59799 C -111.51974 67.14659999999999 -114.33898 50.644009999999994 -114.64385 34.94416999999999 C -73.62328 34.127739999999996 -30.3891 70.15934999999999 -11.457499999999996 124.46685 z M 231.44809 -190.55282 L 347.04057 -190.55282 L 347.04057 -74.96036 L 347.04055 -74.96036 C 283.43907 -74.96036 231.78170999999998 -126.6882 231.44808999999998 -190.55282 z M 231.40855 -454.76416 L 347.00103 -454.76416 L 347.00103 -339.1717 L 347.00101 -339.1717 C 283.39953 -339.1717 231.74217 -390.89954 231.40855 -454.76416 z M -115.85566 293.65231 L -115.85562 293.65231 C -52.25414 293.65231 -0.5967799999999954 345.38015 -0.2631599999999992 409.24477 L -202.01166 409.24477 C -152.63687000000002 422.29313 -116.13587000000001 467.37908000000004 -115.85561000000001 521.0303200000001 L -347.04057 521.0303200000001 C -346.70695 457.1657000000001 -295.04959 405.43786000000006 -231.44810999999999 405.43786000000006 L -231.44806999999997 405.43786000000006 C -231.42110999999997 405.43786000000006 -231.39415999999997 405.43787000000003 -231.36720999999997 405.43789000000004 C -229.04894999999996 343.33713000000006 -178.18849999999998 293.65232000000003 -115.85565999999997 293.65232000000003 z M -0.26319 403.92271 L -0.13387999999999997 403.92271 C 2.76349 342.35832 53.380700000000004 293.28421000000003 115.32927 293.28421000000003 L 115.32954 293.28421000000003 C 115.68772999999999 229.44077000000004 167.33555 177.73778000000004 230.92174999999997 177.73778000000004 L 230.92176999999998 177.73778000000004 C 294.52324 177.73779000000005 346.18059999999997 229.46562000000006 346.51421999999997 293.33024000000006 L 230.92152 293.33024000000006 C 230.56332999999998 357.17368000000005 178.91550999999998 408.87667000000005 115.32930999999999 408.87667000000005 L 115.32928999999999 408.87667000000005 L 115.32928999999999 519.51517 L 115.32926999999998 519.51517 C 53.38069999999998 519.51517 2.763499999999979 470.44106 -0.1338800000000191 408.87667 L -0.26319000000001913 408.87667 C -0.25887000000001914 408.04894 -0.24592000000001912 407.22325 -0.22444000000001912 406.39968999999996 C -0.24592000000001912 405.57613 -0.25887000000001914 404.75043999999997 -0.26319000000001913 403.92270999999994 z M -231.4481 177.69174 L -115.85563 177.69174 C -116.18925 241.55636 -167.84661 293.2842 -231.44809 293.2842 L -347.04056 293.2842 C -346.70694000000003 229.41958 -295.04958000000005 177.69173999999998 -231.4481 177.69173999999998 z M -115.85563 293.2842 L -115.85563 177.69173999999998 L -115.85561 177.69173999999998 C -52.256209999999996 177.69173999999998 -0.6001600000000025 229.41618999999997 -0.2631800000000055 293.27792 L -0.2631800000000055 177.69173999999998 L -0.2631600000000055 177.69173999999998 C 63.338319999999996 177.69173999999998 114.99568000000001 229.41958 115.3293 293.2842 z M -231.44727 -136.98558 L -231.44729 -136.98558 C -295.04877 -136.98558 -346.70613000000003 -188.71341999999999 -347.03975 -252.57804 L -347.03975 -368.1705 L -347.03973 -368.1705 C -283.44015 -368.1705 -231.78397 -316.44575 -231.44730000000004 -252.58375999999998 L -231.44730000000004 -368.1705 L -115.85482000000005 -368.1705 C -116.18844000000004 -304.30588 -167.84579000000005 -252.57805000000002 -231.44727000000006 -252.57804 z M 231.44809 172.20518 C 231.78506000000002 108.34345000000002 283.44112 56.619000000000014 347.04052 56.619000000000014 L 231.44809000000004 56.619000000000014 z M 347.04053 172.21146 L 115.85559999999998 172.21146 C 116.18921999999998 108.34683999999999 167.84656999999999 56.61900999999999 231.44804999999997 56.618999999999986 L 231.44804999999997 -58.97346000000002 L 231.44806999999997 -58.97346000000002 C 295.04954999999995 -58.97346000000002 346.70691 -7.245620000000017 347.04053 56.618999999999986 z M 115.85559 56.619 L 115.85561000000001 56.619 L 115.85561000000001 172.21146 L 0.26313000000001807 172.21146 C 0.5967500000000181 108.34683999999999 52.25411000000002 56.618999999999986 115.85559000000002 56.618999999999986 z M -0.26316 -223.57923 L -0.26316 -107.98676999999999 L -0.26318 -107.98676999999999 C -63.86466 -107.98676999999999 -115.52202000000001 -159.71461 -115.85564000000001 -223.57923 L -115.85564000000001 -339.17169 C -115.52203000000002 -403.03631 -63.86466000000001 -454.76415000000003 -0.2631800000000055 -454.76415000000003 L -0.2631600000000055 -454.76415000000003 L -0.2631600000000055 -339.17169 C -0.5967700000000056 -275.30707 -52.25414000000001 -223.57923 -115.85562 -223.57923 z M 105.6028 -378.68765 C 111.25326 -363.77851000000004 114.10061 -348.63383 114.40843000000001 -334.06483000000003 C 72.97726 -330.52787 29.310570000000013 -361.08337000000006 10.189820000000012 -410.26838000000004 C 4.539350000000011 -425.17752 1.6920000000000108 -440.32220000000007 1.3841800000000113 -454.8912 C 42.815370000000016 -458.42816000000005 86.48206000000002 -427.87266 105.60280000000002 -378.68766000000005 z M -231.44729 -483.76297 L -115.85483 -483.76297 L -115.85483 -368.17051 L -347.03975 -368.17051 C -346.70613000000003 -432.03513 -295.04877000000005 -483.76297 -231.44729 -483.76297 z M 117.04422 -526.05643 C 170.08007 -526.05643 213.25468999999998 -483.21389999999997 214.37795 -429.99435 L 214.40855 -429.99435 L 214.40855 -248.75249 C 214.26791 -221.82774 192.48961 -200.01972999999998 165.67579 -200.01972999999998 C 138.86197 -200.01972999999998 117.08369 -221.82773999999998 116.94303000000001 -248.75248999999997 L 116.94303000000001 -346.21800999999994 L 117.11304000000001 -346.21800999999994 L 117.11304000000001 -428.3931399999999 L 117.04420000000002 -428.3931399999999 L 117.04420000000002 -526.0564299999999 z M 295.83146 299.75903 C 322.83765 299.75903 344.77219 321.72348999999997 344.91384 348.84141 C 344.77218999999997 375.95933 322.83765 397.92379 295.83146 397.92379 C 268.82527 397.92379 246.89075 375.95933 246.74908 348.84141 C 246.89075 321.72348999999997 268.82527 299.75903 295.83146 299.75903 z M 288.71799 400.86509 C 320.51873 400.8651 346.3474 422.38248 346.51421 448.94841 L 230.92174999999997 448.94841 C 231.08855999999997 422.38247 256.91724 400.86510000000004 288.71797 400.86509 z M 346.51421 519.51517 L 230.92174999999997 519.51517 L 230.92174999999997 448.98544000000004 L 346.51421 448.98544000000004 z M 126.50892 453.07655 C 121.14313 439.61879 118.49292 425.83287 118.29741 412.47382 C 158.43543 407.57218 200.49797 433.87108 218.66435 478.24879 C 224.03016000000002 491.70653999999996 226.68037 505.49246999999997 226.87588000000002 518.85151 C 186.73785000000004 523.75315 144.67531000000002 497.45424999999994 126.50893000000002 453.07653999999997 z" stroke-linecap="round" />
</g>
</svg>