<?xml version="1.0" encoding="UTF-8" standalone="no" ?>
<!DOCTYPE svg PUBLIC "-//W3C//DTD SVG 1.1//EN" "http://www.w3.org/Graphics/SVG/1.1/DTD/svg11.dtd">
<svg xmlns="http://www.w3.org/2000/svg" xmlns:xlink="http://www.w3.org/1999/xlink" version="1.1" width="693.5548143280927" height="1065.5646068421756" viewBox="633.2225928359537 87.21769657891218 693.5548143280927 1065.5646068421756" xml:space="preserve">
<desc>Created with Fabric.js 5.3.0</desc>
<defs>
</defs>
<g transform="matrix(0.8256720723 0 0 0.8301055506 806.6120932366 386.4658999712)" id="dqWyHYGPqSvpCWkLOjy79"  >
<path style="stroke: rgb(0,0,0); stroke-width: 0; stroke-dasharray: none; stroke-linecap: butt; stroke-dashoffset: 0; stroke-linejoin: miter; stroke-miterlimit: 4; fill: rgb(0,0,0); fill-rule: nonzero; opacity: 1;"  transform=" translate(-69.9990158844, -34.8125795793)" d="M 69.99902 0 C 108.51400000000001 0 139.79601 31.15739 139.99804 69.62516 L 0.000010000000003174137 69.62516 C 0.20204000000000316 31.157389999999992 31.484050000000003 0 69.99903 0 z" stroke-linecap="round" />
</g>
<g transform="matrix(1.6513209079 0 0 1.6513209079 806.6112881614 712.702468995)" id="MKsfoZSVRIK6eF5C1ps3T"  >
<path style="stroke: rgb(0,0,0); stroke-width: 0; stroke-dasharray: none; stroke-linecap: butt; stroke-dashoffset: 0; stroke-linejoin: miter; stroke-miterlimit: 4; fill: rgb(0,0,0); fill-rule: nonzero; opacity: 1;"  transform=" translate(-35, -34.9999999998)" d="M 35 0 C 54.257760000000005 0 69.89899 15.66257 70 35 C 69.89899 54.33743 54.25776 70 35 70 C 15.742239999999999 70 0.10101999999999833 54.33743 0 35 C 0.10102 15.662569999999999 15.74224 0 35 0 z" stroke-linecap="round" />
</g>
<g transform="matrix(1.6513209079 0 0 1.6513209079 922.2037517117 580.5967963661)" id="6BvDLSmFxyb-WlR9Ghdoi"  >
<path style="stroke: rgb(0,0,0); stroke-width: 0; stroke-dasharray: none; stroke-linecap: butt; stroke-dashoffset: 0; stroke-linejoin: miter; stroke-miterlimit: 4; fill: rgb(0,0,0); fill-rule: nonzero; opacity: 1;"  transform=" translate(-35, -35)" d="M 35 0 C 54.257760000000005 0 69.89899 15.66257 70 35 C 69.89899 54.33743 54.25776 70 35 70 C 15.742239999999999 70 0.10101999999999833 54.33743 0 35 C 0.10102 15.662569999999999 15.74224 0 35 0 z" stroke-linecap="round" />
</g>
<g transform="matrix(1.6513209079 0 0 1.6513209079 1144.8767153696 621.6244601594)" id="UNywWWv0Xd3rYnZkQ8-7Q"  >
<path style="stroke: rgb(0,0,0); stroke-width: 0; stroke-dasharray: none; stroke-linecap: butt; stroke-dashoffset: 0; stroke-linejoin: miter; stroke-miterlimit: 4; fill: rgb(0,0,0); fill-rule: nonzero; opacity: 1;"  transform=" translate(0, 0)" d="M 0 -35 C 19.25776 -35 34.89899 -19.337429999999998 35 0 C 34.89899 19.33743 19.257759999999998 35 0 35 C -19.25776 35 -34.89898 19.337429999999998 -35 0 C -34.89898 -19.33743 -19.257759999999998 -35 0 -35 z" stroke-linecap="round" />
</g>
<g transform="matrix(1.6513209079 0 0 1.6513209079 1268.9811423625 965.3545678978)" id="glh8XwdVRYqgvg4PdF04c"  >
<path style="stroke: rgb(0,0,0); stroke-width: 0; stroke-dasharray: none; stroke-linecap: butt; stroke-dashoffset: 0; stroke-linejoin: miter; stroke-miterlimit: 4; fill: rgb(0,0,0); fill-rule: nonzero; opacity: 1;"  transform=" translate(-35, -35)" d="M 35 0 C 54.257760000000005 0 69.89899 15.66257 70 35 C 69.89899 54.33743 54.25776 70 35 70 C 15.742239999999999 70 0.10101999999999833 54.33743 0 35 C 0.10102 15.662569999999999 15.74224 0 35 0 z" stroke-linecap="round" />
</g>
<g transform="matrix(1.6513209079 0 0 1.6513209079 1037.7962152619 365.9250783442)" id="30qvaNJpR64a1zX5SKT6Y"  >
<path style="stroke: rgb(0,0,0); stroke-width: 0; stroke-dasharray: none; stroke-linecap: butt; stroke-dashoffset: 0; stroke-linejoin: miter; stroke-miterlimit: 4; fill: rgb(0,0,0); fill-rule: nonzero; opacity: 1;"  transform=" translate(-35, -35)" d="M 35 0 C 54.257760000000005 0 69.89899 15.66257 70 35 C 69.89899 54.33743 54.25776 70 35 70 C 15.742239999999999 70 0.10101999999999833 54.33743 0 35 C 0.10102 15.662569999999999 15.74224 0 35 0 z" stroke-linecap="round" />
</g>
<g transform="matrix(1.6513209079 0 0 1.6513209079 691.0188246111 965.3545678978)" id="aruG2i7zADXS_WKGxecMb"  >
<path style="stroke: rgb(0,0,0); stroke-width: 0; stroke-dasharray: none; stroke-linecap: butt; stroke-dashoffset: 0; stroke-linejoin: miter; stroke-miterlimit: 4; fill: rgb(0,0,0); fill-rule: nonzero; opacity: 1;"  transform=" translate(-35, -35)" d="M 35 0 C 54.257760000000005 0 69.89899 15.66257 70 35 C 69.89899 54.33743 54.25776 70 35 70 C 15.742239999999999 70 0.10101999999999833 54.33743 0 35 C 0.10102 15.662569999999999 15.74224 0 35 0 z" stroke-linecap="round" />
</g>
<g transform="matrix(1.6513209079 0 0 1.6513209079 922.2037517117 1082.5343362997)" id="hFyg5HZhkYIiJHjGh4zse"  >
<path style="stroke: rgb(0,0,0); stroke-width: 0; stroke-dasharray: none; stroke-linecap: butt; stroke-dashoffset: 0; stroke-linejoin: miter; stroke-miterlimit: 4; fill: rgb(0,0,0); fill-rule: nonzero; opacity: 1;"  transform=" translate(-35, -35)" d="M 35 0 C 54.257760000000005 0 69.89899 15.66257 70 35 C 69.89899 54.33743 54.25776 70 35 70 C 15.742239999999999 70 0.10101999999999833 54.33743 0 35 C 0.10102 15.662569999999999 15.74224 0 35 0 z" stroke-linecap="round" />
</g>
<g transform="matrix(1.6513209079 0 0 1.6513209079 691.0196379429 188.3073904498)" id="D46cFFjTwgnqMOuZH6m7d"  >
<path style="stroke: rgb(0,0,0); stroke-width: 0; stroke-dasharray: none; stroke-linecap: butt; stroke-dashoffset: 0; stroke-linejoin: miter; stroke-miterlimit: 4; fill: rgb(0,0,0); fill-rule: nonzero; opacity: 1;"  transform=" translate(-35.000005, -35)" d="M 70 0 C 70 0 70.00001 0 70.00001 0 L 70.00001 70 L 0 70 C 0.20203 31.32513 31.48448 0 70 0 z" stroke-linecap="round" />
</g>
<g transform="matrix(1.6390122122 0.2012453948 -0.2012453948 1.6390122122 692.0840580671 554.1108698217)" id="eGXz9hNZzv_MwDWdqV96j"  >
<path style="stroke: rgb(0,0,0); stroke-width: 0; stroke-dasharray: none; stroke-linecap: butt; stroke-dashoffset: 0; stroke-linejoin: miter; stroke-miterlimit: 4; fill: rgb(0,0,0); fill-rule: nonzero; opacity: 1;"  transform=" translate(-30, -48.1516314825)" d="M 60 28.15163 C 59.82683 61.30091 36.819919999999996 89.05057000000001 5.995989999999999 96.30326 C 2.189039999999999 87.68988999999999 0.05230999999999941 78.16721 -8.881784197001252e-16 68.15163 C 0.1731699999999991 35.00235 23.18008 7.252689999999994 54.004 0 C 57.81095 8.61337 59.94768 18.13605 60 28.15163 z" stroke-linecap="round" />
</g>
<g transform="matrix(1.6390122122 -0.2012453948 -0.2012453948 -1.6390122122 692.0840580671 703.4477171413)" id="KCAzgwxGzyZea5P2r3ixI"  >
<path style="stroke: rgb(0,0,0); stroke-width: 0; stroke-dasharray: none; stroke-linecap: butt; stroke-dashoffset: 0; stroke-linejoin: miter; stroke-miterlimit: 4; fill: rgb(0,0,0); fill-rule: nonzero; opacity: 1;"  transform=" translate(-30, -48.15163)" d="M 60 28.15163 C 59.82683 61.30091 36.819919999999996 89.05057000000001 5.995989999999999 96.30326 C 2.189039999999999 87.68988999999999 0.05230999999999941 78.16721 -8.881784197001252e-16 68.15163 C 0.1731699999999991 35.00235 23.18008 7.252689999999994 54.004 0 C 57.81095 8.61337 59.94768 18.13605 60 28.15163 z" stroke-linecap="round" />
</g>
<g transform="matrix(1.6390122122 0.2012453948 -0.2012453948 1.6390122122 1261.5336238139 349.4118692656)" id="JBt28KIaWS-x70VDBfY7M"  >
<path style="stroke: rgb(0,0,0); stroke-width: 0; stroke-dasharray: none; stroke-linecap: butt; stroke-dashoffset: 0; stroke-linejoin: miter; stroke-miterlimit: 4; fill: rgb(0,0,0); fill-rule: nonzero; opacity: 1;"  transform=" translate(-30, -48.15163)" d="M 60 28.15163 C 59.82683 61.30091 36.819919999999996 89.05057000000001 5.995989999999999 96.30326 C 2.189039999999999 87.68988999999999 0.05230999999999941 78.16721 -8.881784197001252e-16 68.15163 C 0.1731699999999991 35.00235 23.18008 7.252689999999994 54.004 0 C 57.81095 8.61337 59.94768 18.13605 60 28.15163 z" stroke-linecap="round" />
</g>
<g transform="matrix(1.2098918626 -0.4644339723 -0.5704868413 -1.4861690317 1037.3565087666 220.5842920735)" id="AxNipWPDkNOSzuJiQjbrd"  >
<path style="stroke: rgb(0,0,0); stroke-width: 0; stroke-dasharray: none; stroke-linecap: butt; stroke-dashoffset: 0; stroke-linejoin: miter; stroke-miterlimit: 4; fill: rgb(0,0,0); fill-rule: nonzero; opacity: 1;"  transform=" translate(-30, -48.15163)" d="M 60 28.15163 C 59.82683 61.30091 36.819919999999996 89.05057000000001 5.995989999999999 96.30326 C 2.189039999999999 87.68988999999999 0.05230999999999941 78.16721 -8.881784197001252e-16 68.15163 C 0.1731699999999991 35.00235 23.18008 7.252689999999994 54.004 0 C 57.81095 8.61337 59.94768 18.13605 60 28.15163 z" stroke-linecap="round" />
</g>
<g transform="matrix(1.204914596 -0.3915004845 -0.4305416312 -1.3250708904 1152.4711662413 1077.2329656459)" id="x0swUv_LI6bNCmQj-42AU"  >
<path style="stroke: rgb(0,0,0); stroke-width: 0; stroke-dasharray: none; stroke-linecap: butt; stroke-dashoffset: 0; stroke-linejoin: miter; stroke-miterlimit: 4; fill: rgb(0,0,0); fill-rule: nonzero; opacity: 1;"  transform=" translate(-30, -48.15163)" d="M 60 28.15163 C 59.82683 61.30091 36.819919999999996 89.05057000000001 5.995989999999999 96.30326 C 2.189039999999999 87.68988999999999 0.05230999999999941 78.16721 -8.881784197001252e-16 68.15163 C 0.1731699999999991 35.00235 23.18008 7.252689999999994 54.004 0 C 57.81095 8.61337 59.94768 18.13605 60 28.15163 z" stroke-linecap="round" />
</g>
<g transform="matrix(1.2049145959 -0.3915004845 -0.4305416312 -1.3250708904 930.460356251 727.9757811549)" id="SyYspmAWEYqC5oBt782jr"  >
<path style="stroke: rgb(0,0,0); stroke-width: 0; stroke-dasharray: none; stroke-linecap: butt; stroke-dashoffset: 0; stroke-linejoin: miter; stroke-miterlimit: 4; fill: rgb(0,0,0); fill-rule: nonzero; opacity: 1;"  transform=" translate(-30, -48.15163)" d="M 60 28.15163 C 59.82683 61.30091 36.819919999999996 89.05057000000001 5.995989999999999 96.30326 C 2.189039999999999 87.68988999999999 0.05230999999999941 78.16721 -8.881784197001252e-16 68.15163 C 0.1731699999999991 35.00235 23.18008 7.252689999999994 54.004 0 C 57.81095 8.61337 59.94768 18.13605 60 28.15163 z" stroke-linecap="round" />
</g>
<g transform="matrix(1.6513209079 0 0 -1.6513209079 691.0196379429 419.4923175504)" id="BLxnEncU0WVBPr3U2EoyH"  >
<path style="stroke: rgb(0,0,0); stroke-width: 0; stroke-dasharray: none; stroke-linecap: butt; stroke-dashoffset: 0; stroke-linejoin: miter; stroke-miterlimit: 4; fill: rgb(0,0,0); fill-rule: nonzero; opacity: 1;"  transform=" translate(-35.000005, -35)" d="M 70 0 C 70 0 70.00001 0 70.00001 0 L 70.00001 70 L 0 70 C 0.20203 31.32513 31.48448 0 70 0 z" stroke-linecap="round" />
</g>
<g transform="matrix(1.6513209079 0 0 -1.6513209079 922.2037599683 448.4911237372)" id="AcWOCkS0Y8FgH6A9S5Syj"  >
<path style="stroke: rgb(0,0,0); stroke-width: 0; stroke-dasharray: none; stroke-linecap: butt; stroke-dashoffset: 0; stroke-linejoin: miter; stroke-miterlimit: 4; fill: rgb(0,0,0); fill-rule: nonzero; opacity: 1;"  transform=" translate(-35.000005, -35)" d="M 70 0 C 70 0 70.00001 0 70.00001 0 L 70.00001 70 L 0 70 C 0.20203 31.32513 31.48448 0 70 0 z" stroke-linecap="round" />
</g>
<g transform="matrix(1.6513209079 0 0 -1.6513209079 1037.7962070053 1075.9930687245)" id="4f2-4ef15UpnZRUbXdYOF"  >
<path style="stroke: rgb(0,0,0); stroke-width: 0; stroke-dasharray: none; stroke-linecap: butt; stroke-dashoffset: 0; stroke-linejoin: miter; stroke-miterlimit: 4; fill: rgb(0,0,0); fill-rule: nonzero; opacity: 1;"  transform=" translate(-35.000005, -35)" d="M 70 0 C 70 0 70.00001 0 70.00001 0 L 70.00001 70 L 0 70 C 0.20203 31.32513 31.48448 0 70 0 z" stroke-linecap="round" />
</g>
<g transform="matrix(1.6513209079 0 0 -1.6513209079 1268.9811671323 481.5175418945)" id="xF9Fc9QmkCJaVOmmjpCsi"  >
<path style="stroke: rgb(0,0,0); stroke-width: 0; stroke-dasharray: none; stroke-linecap: butt; stroke-dashoffset: 0; stroke-linejoin: miter; stroke-miterlimit: 4; fill: rgb(0,0,0); fill-rule: nonzero; opacity: 1;"  transform=" translate(-35.000005, -35)" d="M 70 0 C 70 0 70.00001 0 70.00001 0 L 70.00001 70 L 0 70 C 0.20203 31.32513 31.48448 0 70 0 z" stroke-linecap="round" />
</g>
<g transform="matrix(1.6513209079 0 0 -1.6513209079 1252.4679415405 217.3061966367)" id="X7fEo7ljaQ6rWKepIPjNh"  >
<path style="stroke: rgb(0,0,0); stroke-width: 0; stroke-dasharray: none; stroke-linecap: butt; stroke-dashoffset: 0; stroke-linejoin: miter; stroke-miterlimit: 4; fill: rgb(0,0,0); fill-rule: nonzero; opacity: 1;"  transform=" translate(-35.000005, -35)" d="M 70 0 C 70 0 70.00001 0 70.00001 0 L 70.00001 70 L 0 70 C 0.20203 31.32513 31.48448 0 70 0 z" stroke-linecap="round" />
</g>
<g transform="matrix(1.6513209079 0 0 -1.6513209079 806.61208498 588.7441633965)" id="dGK881IMfwHtDIWIlnvhU"  >
<path style="stroke: rgb(0,0,0); stroke-width: 0; stroke-dasharray: none; stroke-linecap: butt; stroke-dashoffset: 0; stroke-linejoin: miter; stroke-miterlimit: 4; fill: rgb(0,0,0); fill-rule: nonzero; opacity: 1;"  transform=" translate(-35.000005, -35)" d="M 70 0 C 70 0 70.00001 0 70.00001 0 L 70.00001 70 L 0 70 C 0.20203 31.32513 31.48448 0 70 0 z" stroke-linecap="round" />
</g>
<g transform="matrix(1.6513209079 0 0 1.6513209079 691.0188328677 849.7621043475)" id="n48oFFR8uBqodThFa_0oz"  >
<path style="stroke: rgb(0,0,0); stroke-width: 0; stroke-dasharray: none; stroke-linecap: butt; stroke-dashoffset: 0; stroke-linejoin: miter; stroke-miterlimit: 4; fill: rgb(0,0,0); fill-rule: nonzero; opacity: 1;"  transform=" translate(-35.000005, -35)" d="M 70 0 C 70 0 70.00001 0 70.00001 0 L 70.00001 70 L 0 70 C 0.20203 31.32513 31.48448 0 70 0 z" stroke-linecap="round" />
</g>
<g transform="matrix(1.6513209079 0 0 1.6513209079 1037.7962070053 965.3545678978)" id="GW9-b0lDctIj7MZ4xgGvq"  >
<path style="stroke: rgb(0,0,0); stroke-width: 0; stroke-dasharray: none; stroke-linecap: butt; stroke-dashoffset: 0; stroke-linejoin: miter; stroke-miterlimit: 4; fill: rgb(0,0,0); fill-rule: nonzero; opacity: 1;"  transform=" translate(-35.000005, -35)" d="M 70 0 C 70 0 70.00001 0 70.00001 0 L 70.00001 70 L 0 70 C 0.20203 31.32513 31.48448 0 70 0 z" stroke-linecap="round" />
</g>
<g transform="matrix(1.6513209079 0 0 1.6513209079 806.6112799048 965.7226732006)" id="uORqSB0boIUu14MJLff7b"  >
<path style="stroke: rgb(0,0,0); stroke-width: 0; stroke-dasharray: none; stroke-linecap: butt; stroke-dashoffset: 0; stroke-linejoin: miter; stroke-miterlimit: 4; fill: rgb(0,0,0); fill-rule: nonzero; opacity: 1;"  transform=" translate(-35.000005, -35)" d="M 70 0 C 70 0 70.00001 0 70.00001 0 L 70.00001 70 L 0 70 C 0.20203 31.32513 31.48448 0 70 0 z" stroke-linecap="round" />
</g>
<g transform="matrix(-1.6513209079 0 0 -1.6513209079 806.61208498 303.8998540001)" id="hinNzoGEYrkO2HLeiCk32"  >
<path style="stroke: rgb(0,0,0); stroke-width: 0; stroke-dasharray: none; stroke-linecap: butt; stroke-dashoffset: 0; stroke-linejoin: miter; stroke-miterlimit: 4; fill: rgb(0,0,0); fill-rule: nonzero; opacity: 1;"  transform=" translate(-35.000005, -35)" d="M 70 0 C 70 0 70.00001 0 70.00001 0 L 70.00001 70 L 0 70 C 0.20203 31.32513 31.48448 0 70 0 z" stroke-linecap="round" />
</g>
<g transform="matrix(-1.6513209079 0 0 -1.6513209079 1037.7962070053 613.2544526481)" id="WimD72l4sOlMwGmpFHCXZ"  >
<path style="stroke: rgb(0,0,0); stroke-width: 0; stroke-dasharray: none; stroke-linecap: butt; stroke-dashoffset: 0; stroke-linejoin: miter; stroke-miterlimit: 4; fill: rgb(0,0,0); fill-rule: nonzero; opacity: 1;"  transform=" translate(-35.000005, -35)" d="M 70 0 C 70 0 70.00001 0 70.00001 0 L 70.00001 70 L 0 70 C 0.20203 31.32513 31.48448 0 70 0 z" stroke-linecap="round" />
</g>
<g transform="matrix(-1.6513209079 0 0 -1.6513209079 1153.3886870688 965.3545678978)" id="ND12BlJd1kY_7UDFbF3f_"  >
<path style="stroke: rgb(0,0,0); stroke-width: 0; stroke-dasharray: none; stroke-linecap: butt; stroke-dashoffset: 0; stroke-linejoin: miter; stroke-miterlimit: 4; fill: rgb(0,0,0); fill-rule: nonzero; opacity: 1;"  transform=" translate(-35.000005, -35)" d="M 70 0 C 70 0 70.00001 0 70.00001 0 L 70.00001 70 L 0 70 C 0.20203 31.32513 31.48448 0 70 0 z" stroke-linecap="round" />
</g>
<g transform="matrix(-1.6513209079 0 0 1.6513209079 922.2037599683 849.7621043475)" id="UHgKMojz4DJLP93PVaxsJ"  >
<path style="stroke: rgb(0,0,0); stroke-width: 0; stroke-dasharray: none; stroke-linecap: butt; stroke-dashoffset: 0; stroke-linejoin: miter; stroke-miterlimit: 4; fill: rgb(0,0,0); fill-rule: nonzero; opacity: 1;"  transform=" translate(-35.000005, -35)" d="M 70 0 C 70 0 70.00001 0 70.00001 0 L 70.00001 70 L 0 70 C 0.20203 31.32513 31.48448 0 70 0 z" stroke-linecap="round" />
</g>
<g transform="matrix(-1.6513209079 0 0 1.6513209079 1037.7962070053 849.7621043475)" id="v9ngd3sOpI0-XL4bS7bh1"  >
<path style="stroke: rgb(0,0,0); stroke-width: 0; stroke-dasharray: none; stroke-linecap: butt; stroke-dashoffset: 0; stroke-linejoin: miter; stroke-miterlimit: 4; fill: rgb(0,0,0); fill-rule: nonzero; opacity: 1;"  transform=" translate(-35.000005, -35)" d="M 70 0 C 70 0 70.00001 0 70.00001 0 L 70.00001 70 L 0 70 C 0.20203 31.32513 31.48448 0 70 0 z" stroke-linecap="round" />
</g>
<g transform="matrix(-1.6513209079 0 0 1.6513209079 1268.9811341059 613.6232145233)" id="b5CTLVg_Pqu0tqzEZRpPu"  >
<path style="stroke: rgb(0,0,0); stroke-width: 0; stroke-dasharray: none; stroke-linecap: butt; stroke-dashoffset: 0; stroke-linejoin: miter; stroke-miterlimit: 4; fill: rgb(0,0,0); fill-rule: nonzero; opacity: 1;"  transform=" translate(-35.000005, -35)" d="M 70 0 C 70 0 70.00001 0 70.00001 0 L 70.00001 70 L 0 70 C 0.20203 31.32513 31.48448 0 70 0 z" stroke-linecap="round" />
</g>
<g transform="matrix(-1.6513209079 0 0 1.6513209079 922.2037599683 965.7226732006)" id="4Xxkt528j18LOlf-5X4pq"  >
<path style="stroke: rgb(0,0,0); stroke-width: 0; stroke-dasharray: none; stroke-linecap: butt; stroke-dashoffset: 0; stroke-linejoin: miter; stroke-miterlimit: 4; fill: rgb(0,0,0); fill-rule: nonzero; opacity: 1;"  transform=" translate(-35.000005, -35)" d="M 70 0 C 70 0 70.00001 0 70.00001 0 L 70.00001 70 L 0 70 C 0.20203 31.32513 31.48448 0 70 0 z" stroke-linecap="round" />
</g>
<g transform="matrix(1.6513209079 0 0 1.6513209079 691.0188328677 1075.9930687245)" id="9_U3b0-5Ky2HgGstLaSik"  >
<path style="stroke: rgb(0,0,0); stroke-width: 0; stroke-dasharray: none; stroke-linecap: butt; stroke-dashoffset: 0; stroke-linejoin: miter; stroke-miterlimit: 4; fill: rgb(0,0,0); fill-rule: nonzero; opacity: 1;"  transform=" translate(-35.000005, -35)" d="M 70 0 C 70 0 70.00001 0 70.00001 0 L 70.00001 70 L 0 70 C 0.20203 31.32513 31.48448 0 70 0 z" stroke-linecap="round" />
</g>
<g transform="matrix(-1.6513209079 0 0 1.6513209079 806.6113129312 1075.9930687245)" id="YmNdLFpugUL6M4H2fQ1Ne"  >
<path style="stroke: rgb(0,0,0); stroke-width: 0; stroke-dasharray: none; stroke-linecap: butt; stroke-dashoffset: 0; stroke-linejoin: miter; stroke-miterlimit: 4; fill: rgb(0,0,0); fill-rule: nonzero; opacity: 1;"  transform=" translate(-35.000005, -35)" d="M 70 0 C 70 0 70.00001 0 70.00001 0 L 70.00001 70 L 0 70 C 0.20203 31.32513 31.48448 0 70 0 z" stroke-linecap="round" />
</g>
<g transform="matrix(1.6513209079 0 0 1.6513209079 1153.3886870688 844.8081416239)" id="69hKFTdaYV6AbOLIIgN0n"  >
<path style="stroke: rgb(0,0,0); stroke-width: 0; stroke-dasharray: none; stroke-linecap: butt; stroke-dashoffset: 0; stroke-linejoin: miter; stroke-miterlimit: 4; fill: rgb(0,0,0); fill-rule: nonzero; opacity: 1;"  transform=" translate(-35.000005, -35)" d="M 70 0 C 70 0 70.00001 0 70.00001 0 L 70.00001 70 L 0 70 C 0.20203 31.32513 31.48448 0 70 0 z" stroke-linecap="round" />
</g>
<g transform="matrix(1.6513209079 0 0 1.6513209079 1153.3886870688 729.2156780736)" id="JWUAZXjhaZybnhEq6QgnY"  >
<path style="stroke: rgb(0,0,0); stroke-width: 0; stroke-dasharray: none; stroke-linecap: butt; stroke-dashoffset: 0; stroke-linejoin: miter; stroke-miterlimit: 4; fill: rgb(0,0,0); fill-rule: nonzero; opacity: 1;"  transform=" translate(-35.000005, -35)" d="M 70 0 C 70 0 70.00001 0 70.00001 0 L 70.00001 70 L 0 70 C 0.20203 31.32513 31.48448 0 70 0 z" stroke-linecap="round" />
</g>
<g transform="matrix(-1.6513209079 0 0 1.6513209079 1268.9811341059 844.8081416239)" id="q8rrMEZ8HHTmrIXqmYpGX"  >
<path style="stroke: rgb(0,0,0); stroke-width: 0; stroke-dasharray: none; stroke-linecap: butt; stroke-dashoffset: 0; stroke-linejoin: miter; stroke-miterlimit: 4; fill: rgb(0,0,0); fill-rule: nonzero; opacity: 1;"  transform=" translate(-35.000005, -35)" d="M 70 0 C 70 0 70.00001 0 70.00001 0 L 70.00001 70 L 0 70 C 0.20203 31.32513 31.48448 0 70 0 z" stroke-linecap="round" />
</g>
<g transform="matrix(1.6513209079 0 0 1.6513209079 1037.7962070053 498.0307509731)" id="0yvxPsB3GMqTXrEwD8xej"  >
<path style="stroke: rgb(0,0,0); stroke-width: 0; stroke-dasharray: none; stroke-linecap: butt; stroke-dashoffset: 0; stroke-linejoin: miter; stroke-miterlimit: 4; fill: rgb(0,0,0); fill-rule: nonzero; opacity: 1;"  transform=" translate(-35.000005, -35)" d="M 70 0 C 70 0 70.00001 0 70.00001 0 L 70.00001 70 L 0 70 C 0.20203 31.32513 31.48448 0 70 0 z" stroke-linecap="round" />
</g>
<g transform="matrix(-1.6513209079 0 0 1.6513209079 1153.3886870688 498.0307509731)" id="hlQ8BSB79idBBe_0pFKB1"  >
<path style="stroke: rgb(0,0,0); stroke-width: 0; stroke-dasharray: none; stroke-linecap: butt; stroke-dashoffset: 0; stroke-linejoin: miter; stroke-miterlimit: 4; fill: rgb(0,0,0); fill-rule: nonzero; opacity: 1;"  transform=" translate(-35.000005, -35)" d="M 70 0 C 70 0 70.00001 0 70.00001 0 L 70.00001 70 L 0 70 C 0.20203 31.32513 31.48448 0 70 0 z" stroke-linecap="round" />
</g>
<g transform="matrix(-1.6513209079 0 0 -1.6513209079 806.6112799048 849.7621043475)" id="myr35uANMcWv0zNIm_dv4"  >
<path style="stroke: rgb(0,0,0); stroke-width: 0; stroke-dasharray: none; stroke-linecap: butt; stroke-dashoffset: 0; stroke-linejoin: miter; stroke-miterlimit: 4; fill: rgb(0,0,0); fill-rule: nonzero; opacity: 1;"  transform=" translate(-35.000005, -35)" d="M 70 0 C 70 0 70.00001 0 70.00001 0 L 70.00001 70 L 0 70 C 0.20203 31.32513 31.48448 0 70 0 z" stroke-linecap="round" />
</g>
<g transform="matrix(-1.6513209079 0 0 1.6513209079 691.0196379429 303.8998540001)" id="uRH7SF046Lf9oWdUeaIYs"  >
<path style="stroke: rgb(0,0,0); stroke-width: 0; stroke-dasharray: none; stroke-linecap: butt; stroke-dashoffset: 0; stroke-linejoin: miter; stroke-miterlimit: 4; fill: rgb(0,0,0); fill-rule: nonzero; opacity: 1;"  transform=" translate(-35.000005, -35)" d="M 70 0 C 70 0 70.00001 0 70.00001 0 L 70.00001 70 L 0 70 C 0.20203 31.32513 31.48448 0 70 0 z" stroke-linecap="round" />
</g>
<g transform="matrix(1.6513209079 0 0 1.6513209079 1268.9811341059 729.2156780736)" id="GUhnSFKnsax7_B6bj1i0l"  >
<path style="stroke: rgb(0,0,0); stroke-width: 0; stroke-dasharray: none; stroke-linecap: butt; stroke-dashoffset: 0; stroke-linejoin: miter; stroke-miterlimit: 4; fill: rgb(0,0,0); fill-rule: nonzero; opacity: 1;"  transform=" translate(-35.000005, -35)" d="M 70 0 C 70 0 70.00001 0 70.00001 0 L 70.00001 70 L 0 70 C 0.20203 31.32513 31.48448 0 70 0 z" stroke-linecap="round" />
</g>
<g transform="matrix(1.6513209079 0 0 1.6513209079 1037.7962070053 729.2156780736)" id="XDNgR_oNW0Zk7-xDgC1iO"  >
<path style="stroke: rgb(0,0,0); stroke-width: 0; stroke-dasharray: none; stroke-linecap: butt; stroke-dashoffset: 0; stroke-linejoin: miter; stroke-miterlimit: 4; fill: rgb(0,0,0); fill-rule: nonzero; opacity: 1;"  transform=" translate(-35.000005, -35)" d="M 70 0 C 70 0 70.00001 0 70.00001 0 L 70.00001 70 L 0 70 C 0.20203 31.32513 31.48448 0 70 0 z" stroke-linecap="round" />
</g>
<g transform="matrix(-1.3923645202 0 0 1.3923645202 1145.9389363395 135.9504547863)" id="EDKeY8_Kjhm1kxCj1iOsM"  >
<path style="stroke: rgb(0,0,0); stroke-width: 0; stroke-dasharray: none; stroke-linecap: butt; stroke-dashoffset: 0; stroke-linejoin: miter; stroke-miterlimit: 4; fill: rgb(0,0,0); fill-rule: nonzero; opacity: 1;"  transform=" translate(-35.000005, -35)" d="M 70 0 C 70 0 70.00001 0 70.00001 0 L 70.00001 70 L 0 70 C 0.20203 31.32513 31.48448 0 70 0 z" stroke-linecap="round" />
</g>
<g transform="matrix(-1.6513209079 0 0 1.6513209079 922.2037599683 275.1024284118)" id="f0l0YTLgiOQa7UANqB9Oy"  >
<path style="stroke: rgb(0,0,0); stroke-width: 0; stroke-dasharray: none; stroke-linecap: butt; stroke-dashoffset: 0; stroke-linejoin: miter; stroke-miterlimit: 4; fill: rgb(0,0,0); fill-rule: nonzero; opacity: 1;"  transform=" translate(-35.000005, -70)" d="M 70.00001 140 L 70 140 C 31.484479999999998 140 0.2020299999999935 108.67487 0 70 L 0 0 L 0.00001 0 C 38.515530000000005 0 69.79798000000001 31.32513 70.00001 70 z" stroke-linecap="round" />
</g>
<g transform="matrix(0.6357585495 0 0 0.6357585495 806.6120932366 188.3073904498)" id="tKsKtU4uonuh6NUyqKTdl"  >
<path style="stroke: rgb(0,0,0); stroke-width: 0; stroke-dasharray: none; stroke-linecap: butt; stroke-dashoffset: 0; stroke-linejoin: miter; stroke-miterlimit: 4; fill: rgb(0,0,0); fill-rule: nonzero; opacity: 1;"  transform=" translate(0, 0)" d="M -90.90909 -90.90909 L 90.90909 -90.90909 L 90.90909 90.90909 L -90.90909 90.90909 z" stroke-linecap="round" />
</g>
<g transform="matrix(0.544935905 0 0 0.6357585495 1145.1320742729 242.0760102546)" id="_0TWq-tCya1Veq0fQV_cN"  >
<path style="stroke: rgb(0,0,0); stroke-width: 0; stroke-dasharray: none; stroke-linecap: butt; stroke-dashoffset: 0; stroke-linejoin: miter; stroke-miterlimit: 4; fill: rgb(0,0,0); fill-rule: nonzero; opacity: 1;"  transform=" translate(0, 0)" d="M -90.90909 -90.90909 L 90.90909 -90.90909 L 90.90909 90.90909 L -90.90909 90.90909 z" stroke-linecap="round" />
</g>
<g transform="matrix(0.6357585495 0 0 0.6357585495 806.6120938145 473.1602470559)" id="BC5BCFUqO8EBrN99MH0X-"  >
<path style="stroke: rgb(0,0,0); stroke-width: 0; stroke-dasharray: none; stroke-linecap: butt; stroke-dashoffset: 0; stroke-linejoin: miter; stroke-miterlimit: 4; fill: rgb(0,0,0); fill-rule: nonzero; opacity: 1;"  transform=" translate(0, 0)" d="M -90.90909 -90.90909 L 90.90909 -90.90909 L 90.90909 90.90909 L -90.90909 90.90909 z" stroke-linecap="round" />
</g>
<g transform="matrix(1.3923645202 0 0 -1.3923645202 1145.9389433014 341.1552647263)" id="2kzQLLIlRYV8FA9V1lIJs"  >
<path style="stroke: rgb(0,0,0); stroke-width: 0; stroke-dasharray: none; stroke-linecap: butt; stroke-dashoffset: 0; stroke-linejoin: miter; stroke-miterlimit: 4; fill: rgb(0,0,0); fill-rule: nonzero; opacity: 1;"  transform=" translate(-35, -52.5)" d="M 35 0 C 54.257760000000005 0 69.89899 15.66257 70 35 L 70 35 L 70 105 L 0 105 L 0 35 L 0 35 C 0.10102 15.662569999999999 15.74224 0 35 0 z" stroke-linecap="round" />
</g>
<g transform="matrix(-0.8256720723 0 0 0.690602579 1268.9811417861 1039.1808798199)" id="Put0BZgLsBRm-7hmthJ2X"  >
<path style="stroke: rgb(0,0,0); stroke-width: 0; stroke-dasharray: none; stroke-linecap: butt; stroke-dashoffset: 0; stroke-linejoin: miter; stroke-miterlimit: 4; fill: rgb(0,0,0); fill-rule: nonzero; opacity: 1;"  transform=" translate(-69.999025, -34.81258)" d="M 69.99902 0 C 108.51400000000001 0 139.79601 31.15739 139.99804 69.62516 L 0.000010000000003174137 69.62516 C 0.20204000000000316 31.157389999999992 31.484050000000003 0 69.99903 0 z" stroke-linecap="round" />
</g>
<g transform="matrix(-0.6357585495 0 0 -0.3879135132 1268.9811423625 1098.5244356633)" id="DmHLBJ5UoVkjnjj1wj9is"  >
<path style="stroke: rgb(0,0,0); stroke-width: 0; stroke-dasharray: none; stroke-linecap: butt; stroke-dashoffset: 0; stroke-linejoin: miter; stroke-miterlimit: 4; fill: rgb(0,0,0); fill-rule: nonzero; opacity: 1;"  transform=" translate(0, 0)" d="M -90.90909 -90.90909 L 90.90909 -90.90909 L 90.90909 90.90909 L -90.90909 90.90909 z" stroke-linecap="round" />
</g>
<g transform="matrix(1.6513209079 0 0 1.6513209079 666.2490109932 308.128846569)" id="Laz1A2v4yZ-BFxMg0EiTk"  >
<path style="stroke: rgb(0,0,0); stroke-width: 1; stroke-dasharray: none; stroke-linecap: butt; stroke-dashoffset: 0; stroke-linejoin: miter; stroke-miterlimit: 4; fill: rgb(0,0,0); fill-rule: nonzero; opacity: 1;"  transform=" translate(0, 0)" d="M 0 0" stroke-linecap="round" />
</g>
</svg>